<?xml version="1.0" encoding="utf-8"?>
<!-- Generator: Adobe Illustrator 24.0.0, SVG Export Plug-In . SVG Version: 6.00 Build 0)  -->
<svg version="1.1" id="Layer_1" xmlns="http://www.w3.org/2000/svg" xmlns:xlink="http://www.w3.org/1999/xlink" x="0px" y="0px"
	 viewBox="0 0 600 250" style="enable-background:new 0 0 600 250;" xml:space="preserve">
<style type="text/css">
	.st0{fill:#FFFF00;fill-opacity:0;}
	.st1{fill:#EB3B5A;}
	.st2{fill:none;stroke:#EB3B5A;stroke-width:15.4;stroke-miterlimit:10;}
	.st3{fill:none;stroke:#EB3B5A;stroke-width:8;stroke-miterlimit:10;}
</style>
<g>
	<title>logo</title>
	<path class="st0" d="M78.9,144.9c14.2,5.9,21,22.2,15.2,36.5c-2.9,6.8-8.3,12.3-15.2,15.2c-6.1,2.5-12.6,3.7-19.2,3.5H40v23.3H24.9
		v-82.1h34.9C66.2,141.2,72.8,142.5,78.9,144.9z M73.6,182.7c3.5-2.8,5.3-6.8,5.3-12c0-5.2-1.8-9.2-5.3-12
		c-3.5-2.8-8.6-4.2-15.5-4.2H40v32.4h18.1C65,187,70.2,185.6,73.6,182.7z"/>
	<path class="st0" d="M185.9,142.4v81.1h-15.2V188h-43.6v35.4h-15.2v-81.1h15.2v33.4h43.6v-33.4H185.9z"/>
	<path class="st1" d="M219,214.9c-6.5-6.4-9.8-15.5-9.8-27.4v-46.3h16.2v45.6c0,16.1,7.1,24.1,21.4,24.1s21.3-8,21.2-24.1v-45.6
		h15.2v46.3c0,11.8-3.2,21-9.7,27.4c-6.5,6.4-15.5,9.5-27.2,9.5C234.5,224.4,225.5,221.3,219,214.9z"/>
	<path class="st1" d="M322,219.4c-20.3-10.5-28.1-35.5-17.7-55.8c3.9-7.6,10.1-13.7,17.7-17.7c14.6-7.3,31.7-7.3,46.4,0
		c20.3,10.5,28.2,35.4,17.7,55.7c-3.9,7.6-10.1,13.8-17.7,17.7C353.7,226.6,336.6,226.6,322,219.4z M360.3,207.9
		c4.4-2.4,8-5.9,10.5-10.3c5.1-9.3,5.1-20.4,0-29.6c-2.5-4.3-6.2-7.9-10.5-10.3c-9.5-4.9-20.7-4.9-30.3,0c-4.4,2.4-8,5.9-10.5,10.3
		c-5.1,9.3-5.1,20.4,0,29.6c2.5,4.3,6.2,8,10.5,10.3C339.5,212.8,350.7,212.8,360.3,207.9z"/>
	<path class="st1" d="M482.7,141.3v82.1h-13.3l-45.4-55.5v55.5h-15.2v-82.1h13.3l45.4,55.5v-55.5H482.7z"/>
	<path class="st1" d="M563.6,181.9h15.2v32.7c-4.7,3.5-10,6.1-15.5,7.8c-5.9,1.8-12,2.7-18.2,2.7c-8.2,0.1-16.5-1.8-23.9-5.5
		c-6.8-3.4-12.6-8.6-16.7-15.1c-8-13.3-8-30,0-43.3c4.1-6.5,9.9-11.7,16.7-15.1c7.5-3.7,15.7-5.6,24.1-5.5c6.8-0.1,13.4,1,19.8,3.4
		c5.6,2.1,10.8,5.6,15,9.9l-10.1,9.3c-6.4-6.2-15-9.5-23.9-9.3c-5.6-0.1-11.2,1.1-16.2,3.6c-4.6,2.3-8.4,5.8-11.1,10.2
		c-2.8,4.5-4.2,9.7-4.1,15c-0.1,5.2,1.3,10.4,4.1,14.7c2.7,4.3,6.6,8,11.1,10.3c5,2.6,10.5,3.9,16.1,3.7c6.2,0.1,12.2-1.3,17.7-4.3
		L563.6,181.9L563.6,181.9z"/>
	<polyline class="st2" points="32.4,141.3 32.4,215.8 185.9,215.8 	"/>
	<path class="st1" d="M78.9,29.5C89.4,33.6,96.2,44,95.7,55.3c0.1,5.6-1.4,10.9-4.3,15.6c-3.1,4.5-7.4,8.1-12.5,10.2
		c-6.1,2.5-12.6,3.7-19.2,3.5H40v23.3H24.9V25.9h34.9C66.2,25.8,72.8,27,78.9,29.5z M73.6,67.3c3.5-2.8,5.3-6.8,5.3-12
		s-1.8-9.3-5.3-12c-3.5-2.8-8.6-4.2-15.5-4.2H40v32.4h18.1C65,71.5,70.2,70.1,73.6,67.3z"/>
	<path class="st1" d="M185.9,26.9v81.1h-15.2V72.5h-43.6v35.4h-15.2V26.9h15.2v33.4h43.6V26.9H185.9z"/>
	<path class="st1" d="M219,99.4c-6.5-6.4-9.8-15.5-9.8-27.4V25.8h16.2v45.8c0,16.1,7.1,24.1,21.4,24.1s21.3-8,21.2-24.1V25.9h15.2
		v46.3c0,11.8-3.2,21-9.7,27.4c-6.5,6.4-15.5,9.5-27.2,9.5C234.5,109,225.5,105.8,219,99.4z"/>
	<path class="st1" d="M322,104c-13.7-7-22.3-21.3-22.1-36.7c-0.2-15.5,8.3-29.6,22.1-36.7c14.6-7.3,31.7-7.3,46.4,0
		c13.8,7,22.3,21.3,22.1,36.7c0.1,7.6-1.9,15.2-5.9,21.7c-3.9,6.4-9.5,11.6-16.2,15.1C353.7,111.3,336.6,111.3,322,104z M360.3,92.4
		c4.4-2.4,8-5.9,10.5-10.3c2.6-4.5,3.9-9.6,3.8-14.8c0.1-5.2-1.3-10.3-3.8-14.8c-2.5-4.3-6.2-7.9-10.5-10.3
		c-9.5-4.9-20.7-4.9-30.3,0c-4.4,2.4-8,5.9-10.5,10.3c-2.6,4.5-3.9,9.6-3.8,14.8c-0.1,5.2,1.3,10.3,3.8,14.8
		c2.5,4.3,6.2,8,10.5,10.3C339.5,97.3,350.7,97.3,360.3,92.4z"/>
	<path class="st1" d="M482.7,25.9v82.1h-13.3l-45.4-55.5v55.5h-15.2V25.9h13.3l45.4,55.5V25.9C467.5,25.9,482.7,25.9,482.7,25.9z"/>
	<path class="st1" d="M563.6,66.4h15.2v32.7c-4.7,3.5-10,6.1-15.5,7.8c-5.9,1.8-12,2.7-18.2,2.7c-8.2,0.1-16.5-1.8-23.9-5.5
		c-6.8-3.4-12.6-8.6-16.7-15.1s-6.2-14-6.1-21.7c-0.1-7.7,2-15.2,6.1-21.7s9.9-11.7,16.7-15.1c7.5-3.7,15.7-5.6,24.1-5.5
		c6.8-0.1,13.4,1,19.8,3.4c5.6,2.1,10.8,5.6,15,9.9L570,47.8c-6.4-6.2-15-9.5-23.9-9.3c-5.6-0.1-11.2,1.1-16.2,3.6
		c-4.6,2.3-8.4,5.8-11.1,10.2c-2.8,4.5-4.2,9.7-4.1,15c-0.1,5.2,1.3,10.4,4.1,14.7c2.7,4.3,6.6,8,11.1,10.3c5,2.6,10.5,3.9,16.1,3.7
		c6.2,0.1,12.2-1.3,17.7-4.3L563.6,66.4L563.6,66.4z"/>
</g>
<rect x="4.5" y="4" class="st3" width="591.3" height="242.2"/>
</svg>
